<svg version="1.0" xmlns="http://www.w3.org/2000/svg" width="35" height="35" viewBox="0 0 200.000000 200.000000" preserveAspectRatio="xMidYMid meet">

<g transform="translate(0.000000,200.000000) scale(0.100000,-0.100000)" fill="#000000" stroke="none">
<path d="M815 1975 c-377 -88 -653 -340 -760 -696 -173 -572 205 -1174 797
-1269 108 -18 312 -8 413 19 346 93 626 377 716 728 27 109 27 367 0 476 -56
219 -195 428 -371 561 -82 61 -221 131 -326 162 -77 23 -110 27 -249 30 -112
2 -178 -1 -220 -11z m155 -710 c0 -3 -33 -64 -74 -135 l-74 -129 21 -42 c24
-50 12 -63 137 150 l94 161 80 0 81 0 78 -136 78 -136 -78 -138 -78 -139 -92
-1 c-51 0 -93 3 -93 7 0 4 34 66 76 139 l76 133 -25 36 -25 37 -84 -144 c-47
-78 -93 -158 -104 -175 -18 -33 -18 -33 -99 -33 l-81 0 -22 43 c-26 52 -87
161 -113 204 l-20 32 63 108 c35 59 69 120 77 136 14 27 16 27 108 27 51 0 93
-2 93 -5z"></path>
</g>
</svg>